<svg width="215" height="254" viewBox="0 0 215 254" fill="none" xmlns="http://www.w3.org/2000/svg">
<path d="M93.9189 238.842L90.1359 238.092L92.5443 220.96C92.7084 219.792 93.0633 218.872 93.609 218.199C94.1547 217.527 94.8683 217.086 95.7497 216.878C96.6312 216.669 97.6641 216.682 98.8485 216.917C98.9878 216.944 99.1162 216.973 99.2337 217.004C99.3521 217.027 99.4805 217.056 99.6188 217.091L99.1814 220.203C99.0778 220.176 98.9843 220.153 98.9007 220.137C98.8181 220.113 98.7315 220.092 98.6409 220.075C97.9163 219.931 97.3721 220.008 97.0082 220.304C96.6452 220.594 96.4158 221.08 96.3199 221.762L93.9189 238.842ZM91.7145 240.769C92.3207 240.889 92.8115 241.192 93.1871 241.679C93.5547 242.171 93.6985 242.702 93.6184 243.271C93.5374 243.848 93.2562 244.295 92.7748 244.611C92.2855 244.934 91.7378 245.035 91.1317 244.915C90.5326 244.796 90.0492 244.491 89.6815 243.999C89.3059 243.512 89.1587 242.981 89.2397 242.404C89.3198 241.834 89.6045 241.388 90.0938 241.066C90.5751 240.749 91.1154 240.65 91.7145 240.769Z" fill="#EC1919"/>
<path d="M93.9189 238.842L93.7797 239.832L94.7606 240.026L94.8998 239.036L93.9189 238.842ZM90.1359 238.092L89.1549 237.898L89.0157 238.888L89.9967 239.083L90.1359 238.092ZM93.609 218.199L92.8318 217.533L92.8318 217.533L93.609 218.199ZM95.7497 216.878L96.0217 217.861L96.0217 217.861L95.7497 216.878ZM99.2337 217.004L99.0371 217.981L99.0656 217.989L99.0945 217.994L99.2337 217.004ZM99.6188 217.091L100.6 217.285L100.732 216.343L99.8069 216.112L99.6188 217.091ZM99.1814 220.203L98.9772 221.178L100.014 221.456L100.162 220.398L99.1814 220.203ZM98.9007 220.137L98.6805 221.108L98.7207 221.119L98.7615 221.127L98.9007 220.137ZM97.0082 220.304L97.6442 221.111L97.6516 221.105L97.0082 220.304ZM93.1871 241.679L93.9639 241.095L93.9588 241.088L93.9535 241.081L93.1871 241.679ZM92.7748 244.611L92.2068 243.755L92.2063 243.756L92.7748 244.611ZM89.6815 243.999L90.4583 243.415L90.4532 243.408L90.4479 243.401L89.6815 243.999ZM90.0938 241.066L89.5258 240.21L89.5253 240.21L90.0938 241.066ZM94.0581 237.851L90.2751 237.102L89.9967 239.083L93.7797 239.832L94.0581 237.851ZM91.1168 238.287L93.5252 221.154L91.5633 220.765L89.1549 237.898L91.1168 238.287ZM93.5252 221.154C93.6725 220.106 93.9793 219.368 94.3862 218.866L92.8318 217.533C92.1473 218.376 91.7443 219.478 91.5633 220.765L93.5252 221.154ZM94.3862 218.866C94.7974 218.359 95.331 218.025 96.0217 217.861L95.4778 215.894C94.4056 216.148 93.512 216.694 92.8318 217.533L94.3862 218.866ZM96.0217 217.861C96.7355 217.692 97.6223 217.692 98.7093 217.907L98.9877 215.927C97.7059 215.673 96.5269 215.646 95.4778 215.894L96.0217 217.861ZM98.7093 217.907C98.8326 217.932 98.9416 217.956 99.0371 217.981L99.4302 216.027C99.2908 215.991 99.143 215.957 98.9877 215.927L98.7093 217.907ZM99.0945 217.994C99.194 218.014 99.3059 218.039 99.4308 218.07L99.8069 216.112C99.6551 216.074 99.5102 216.041 99.3729 216.014L99.0945 217.994ZM98.6379 216.897L98.2004 220.009L100.162 220.398L100.6 217.285L98.6379 216.897ZM99.3855 219.228C99.2656 219.196 99.1499 219.168 99.0399 219.147L98.7615 221.127C98.8187 221.138 98.8901 221.155 98.9772 221.178L99.3855 219.228ZM99.1209 219.166C99.0095 219.134 98.8957 219.107 98.7801 219.084L98.5017 221.065C98.5672 221.078 98.6267 221.092 98.6805 221.108L99.1209 219.166ZM98.7801 219.084C97.923 218.914 97.0376 218.955 96.3647 219.503L97.6516 221.105C97.7066 221.06 97.9096 220.948 98.5017 221.065L98.7801 219.084ZM96.3722 219.497C95.7532 219.991 95.4542 220.747 95.339 221.567L97.3008 221.956C97.3774 221.412 97.5373 221.196 97.6442 221.111L96.3722 219.497ZM95.339 221.567L92.938 238.647L94.8998 239.036L97.3008 221.956L95.339 221.567ZM91.5753 241.759C91.9445 241.832 92.2082 242.001 92.4207 242.276L93.9535 241.081C93.4148 240.384 92.6968 239.946 91.8537 239.779L91.5753 241.759ZM92.4103 242.262C92.6169 242.539 92.6778 242.79 92.6375 243.077L94.5994 243.466C94.7192 242.613 94.4926 241.803 93.9639 241.095L92.4103 242.262ZM92.6375 243.077C92.5958 243.374 92.4679 243.583 92.2068 243.755L93.3428 245.468C94.0444 245.006 94.479 244.322 94.5994 243.466L92.6375 243.077ZM92.2063 243.756C91.9285 243.939 91.635 243.997 91.2709 243.925L90.9925 245.905C91.8407 246.073 92.6426 245.929 93.3433 245.467L92.2063 243.756ZM91.2709 243.925C90.9173 243.855 90.6645 243.691 90.4583 243.415L88.9047 244.583C89.4339 245.291 90.1478 245.738 90.9925 245.905L91.2709 243.925ZM90.4479 243.401C90.2426 243.135 90.1797 242.89 90.2207 242.598L88.2588 242.21C88.1376 243.072 88.3693 243.889 88.9151 244.596L90.4479 243.401ZM90.2207 242.598C90.2602 242.317 90.3854 242.104 90.6623 241.922L89.5253 240.21C88.8236 240.672 88.3795 241.351 88.2588 242.21L90.2207 242.598ZM90.6618 241.922C90.9306 241.745 91.2166 241.688 91.5753 241.759L91.8537 239.779C91.0142 239.612 90.2197 239.753 89.5258 240.21L90.6618 241.922Z" fill="#A80A0A"/>
<path d="M63.0223 216.287L59.0892 224.915L55.8445 222.83L62.6324 207.941L65.7785 209.962L64.5721 212.608L64.7155 212.701C65.4063 212.066 66.228 211.713 67.1807 211.64C68.1273 211.563 69.1176 211.856 70.1513 212.521C71.0536 213.1 71.7527 213.829 72.2484 214.707C72.7353 215.588 72.9829 216.57 72.9912 217.653C72.9966 218.743 72.7283 219.882 72.1862 221.072L67.8642 230.552L64.6195 228.467L68.694 219.53C69.1242 218.586 69.2269 217.683 69.0022 216.82C68.7776 215.958 68.2768 215.277 67.5 214.778C67.022 214.47 66.5014 214.299 65.9383 214.263C65.3753 214.227 64.8369 214.366 64.3232 214.679C63.8006 214.995 63.367 215.531 63.0223 216.287Z" fill="#EC1919"/>
<path d="M59.0892 224.915L58.6743 225.825L59.5157 226.365L59.9305 225.455L59.0892 224.915ZM55.8445 222.83L55.0031 222.29L54.5883 223.2L55.4296 223.74L55.8445 222.83ZM62.6324 207.941L63.0472 207.031L62.2059 206.491L61.7911 207.4L62.6324 207.941ZM65.7785 209.962L66.6199 210.503L67.0347 209.593L66.1933 209.052L65.7785 209.962ZM64.5721 212.608L63.7307 212.068L63.3159 212.978L64.1572 213.518L64.5721 212.608ZM64.7155 212.701L64.3007 213.61L64.8686 213.975L65.3407 213.542L64.7155 212.701ZM67.1807 211.64L67.3165 212.696L67.3201 212.695L67.1807 211.64ZM72.2484 214.707L73.0338 214.199L73.0285 214.19L72.2484 214.707ZM72.9912 217.653L73.9293 217.73L73.9293 217.727L72.9912 217.653ZM67.8642 230.552L67.4494 231.462L68.2907 232.002L68.7055 231.092L67.8642 230.552ZM64.6195 228.467L63.7781 227.927L63.3633 228.837L64.2047 229.377L64.6195 228.467ZM69.0022 216.82L69.9008 216.596L69.9008 216.596L69.0022 216.82ZM65.9383 214.263L65.9585 215.32L65.9585 215.32L65.9383 214.263ZM64.3232 214.679L64.815 215.621L64.8178 215.619L64.3232 214.679ZM62.1809 215.747L58.2478 224.374L59.9305 225.455L63.8636 216.828L62.1809 215.747ZM59.504 224.005L56.2593 221.92L55.4296 223.74L58.6743 225.825L59.504 224.005ZM56.6858 223.371L63.4738 208.481L61.7911 207.4L55.0031 222.29L56.6858 223.371ZM62.2176 208.851L65.3637 210.872L66.1933 209.052L63.0472 207.031L62.2176 208.851ZM64.9372 209.422L63.7307 212.068L65.4134 213.149L66.6199 210.503L64.9372 209.422ZM64.1572 213.518L64.3007 213.61L65.1303 211.791L64.9869 211.698L64.1572 213.518ZM65.3407 213.542C65.8888 213.039 66.5383 212.755 67.3165 212.696L67.0448 210.584C65.9176 210.67 64.9237 211.094 64.0902 211.859L65.3407 213.542ZM67.3201 212.695C68.0418 212.637 68.8387 212.854 69.7365 213.43L70.5662 211.611C69.3964 210.859 68.2129 210.489 67.0412 210.584L67.3201 212.695ZM69.7365 213.43C70.5103 213.927 71.0753 214.529 71.4684 215.225L73.0285 214.19C72.43 213.13 71.597 212.273 70.5662 211.611L69.7365 213.43ZM71.4631 215.216C71.8438 215.904 72.0463 216.682 72.0532 217.58L73.9293 217.727C73.9195 216.459 73.6267 215.272 73.0337 214.199L71.4631 215.216ZM72.0532 217.577C72.0576 218.465 71.8392 219.447 71.3449 220.531L73.0276 221.612C73.6174 220.318 73.9357 219.021 73.9293 217.73L72.0532 217.577ZM71.3449 220.531L67.0228 230.011L68.7055 231.092L73.0276 221.612L71.3449 220.531ZM68.279 229.642L65.0343 227.558L64.2047 229.377L67.4494 231.462L68.279 229.642ZM65.4608 229.008L69.5354 220.07L67.8527 218.989L63.7781 227.927L65.4608 229.008ZM69.5354 220.07C70.0437 218.955 70.2091 217.78 69.9008 216.596L68.1037 217.044C68.2447 217.586 68.2047 218.217 67.8527 218.989L69.5354 220.07ZM69.9008 216.596C69.5929 215.414 68.8976 214.499 67.9148 213.868L67.0852 215.687C67.656 216.054 67.9622 216.501 68.1037 217.044L69.9008 216.596ZM67.9148 213.868C67.294 213.469 66.6231 213.251 65.9182 213.206L65.9585 215.32C66.3797 215.347 66.7499 215.472 67.0852 215.687L67.9148 213.868ZM65.9182 213.206C65.175 213.159 64.4742 213.346 63.8287 213.739L64.8178 215.619C65.1996 215.386 65.5756 215.295 65.9585 215.32L65.9182 213.206ZM63.8315 213.738C63.1228 214.166 62.5828 214.865 62.1809 215.747L63.8636 216.828C64.1512 216.197 64.4785 215.825 64.815 215.621L63.8315 213.738Z" fill="#A80A0A"/>
<path d="M42.871 202.239L49.3439 195.166L51.7072 198.213L40.6602 210.285L38.4013 207.373L40.2784 205.321L40.1609 205.17C39.3117 205.548 38.4524 205.611 37.5832 205.358C36.7095 205.1 35.8984 204.488 35.1498 203.522C34.4578 202.63 34.018 201.675 33.8304 200.656C33.6385 199.632 33.7104 198.6 34.046 197.559C34.3773 196.512 34.9862 195.51 35.8728 194.552L42.9067 186.865L45.27 189.913L38.6389 197.159C37.9005 197.966 37.4968 198.822 37.4279 199.727C37.3546 200.626 37.6226 201.468 38.2319 202.254C38.6454 202.787 39.1139 203.151 39.6374 203.347C40.1517 203.542 40.6872 203.553 41.244 203.38C41.7964 203.201 42.3388 202.821 42.871 202.239Z" fill="#EC1919"/>
<path d="M49.3439 195.166L50.019 194.428L49.4062 193.638L48.7311 194.376L49.3439 195.166ZM51.7072 198.213L52.3201 199.004L52.9952 198.266L52.3823 197.476L51.7072 198.213ZM40.6602 210.285L39.9851 211.023L40.5979 211.813L41.273 211.076L40.6602 210.285ZM38.4013 207.373L37.7884 206.582L37.1133 207.32L37.7262 208.11L38.4013 207.373ZM40.2784 205.321L40.8912 206.111L41.5663 205.374L40.9535 204.584L40.2784 205.321ZM40.1609 205.17L40.836 204.432L40.4252 203.902L39.8506 204.158L40.1609 205.17ZM37.5832 205.358L37.3508 206.407L37.3543 206.408L37.5832 205.358ZM33.8304 200.656L34.7214 200.411L34.7206 200.408L33.8304 200.656ZM34.046 197.559L34.8971 197.933L34.8991 197.926L34.046 197.559ZM35.8728 194.552L36.4819 195.346L36.4856 195.342L35.8728 194.552ZM42.9067 186.865L43.5818 186.128L42.969 185.337L42.2939 186.075L42.9067 186.865ZM45.27 189.913L45.8829 190.703L46.558 189.965L45.9451 189.175L45.27 189.913ZM37.4279 199.727L38.3354 199.816L38.336 199.809L37.4279 199.727ZM39.6374 203.347L39.9259 202.316L39.922 202.315L39.6374 203.347ZM41.244 203.38L41.4635 204.425L41.4723 204.422L41.244 203.38ZM43.4838 203.03L49.9567 195.956L48.7311 194.376L42.2582 201.449L43.4838 203.03ZM48.6688 195.904L51.0321 198.951L52.3823 197.476L50.019 194.428L48.6688 195.904ZM51.0944 197.423L40.0473 209.495L41.273 211.076L52.3201 199.004L51.0944 197.423ZM41.3353 209.548L39.0764 206.635L37.7262 208.11L39.9851 211.023L41.3353 209.548ZM39.0141 208.163L40.8912 206.111L39.6656 204.531L37.7884 206.582L39.0141 208.163ZM40.9535 204.584L40.836 204.432L39.4858 205.907L39.6033 206.059L40.9535 204.584ZM39.8506 204.158C39.1734 204.46 38.5021 204.509 37.812 204.308L37.3543 206.408C38.4028 206.713 39.45 206.636 40.4712 206.181L39.8506 204.158ZM37.8155 204.309C37.1482 204.112 36.4827 203.633 35.8249 202.785L34.4747 204.26C35.3141 205.343 36.2708 206.088 37.3508 206.407L37.8155 204.309ZM35.8249 202.785C35.2221 202.007 34.8696 201.217 34.7213 200.411L32.9395 200.901C33.1664 202.133 33.6934 203.253 34.4747 204.26L35.8249 202.785ZM34.7206 200.408C34.5696 199.602 34.6221 198.785 34.8971 197.933L33.195 197.185C32.7988 198.414 32.7075 199.662 32.9402 200.905L34.7206 200.408ZM34.8991 197.926C35.1667 197.081 35.6755 196.218 36.4819 195.346L35.2637 193.757C34.297 194.802 33.5878 195.944 33.193 197.191L34.8991 197.926ZM36.4856 195.342L43.5195 187.655L42.2939 186.075L35.26 193.761L36.4856 195.342ZM42.2316 187.603L44.5949 190.65L45.9451 189.175L43.5818 186.128L42.2316 187.603ZM44.6572 189.123L38.0261 196.369L39.2517 197.949L45.8829 190.703L44.6572 189.123ZM38.0261 196.369C37.1712 197.303 36.615 198.395 36.5198 199.644L38.336 199.809C38.3787 199.248 38.6299 198.629 39.2517 197.949L38.0261 196.369ZM36.5204 199.638C36.4176 200.899 36.8108 202.03 37.5568 202.992L38.907 201.516C38.4345 200.907 38.2916 200.353 38.3354 199.816L36.5204 199.638ZM37.5568 202.992C38.0638 203.645 38.6625 204.121 39.3527 204.378L39.922 202.315C39.5653 202.182 39.2271 201.929 38.907 201.516L37.5568 202.992ZM39.3488 204.377C40.0369 204.638 40.7491 204.647 41.4635 204.425L41.0245 202.334C40.6253 202.458 40.2665 202.446 39.9259 202.316L39.3488 204.377ZM41.4723 204.422C42.2003 204.187 42.8699 203.7 43.4838 203.03L42.2582 201.449C41.8076 201.941 41.3926 202.215 41.0157 202.337L41.4723 204.422Z" fill="#A80A0A"/>
<path d="M33.1316 168.306L18.6176 175.864L17.2809 172.246L31.7948 164.689L33.1316 168.306ZM15.8856 175.118C16.0973 175.691 16.0999 176.277 15.8935 176.877C15.6808 177.48 15.3193 177.915 14.809 178.18C14.2924 178.449 13.7783 178.471 13.2666 178.245C12.7486 178.022 12.3838 177.624 12.1721 177.051C11.9579 176.472 11.9584 175.883 12.1736 175.287C12.3801 174.687 12.7416 174.252 13.2581 173.983C13.7684 173.718 14.2825 173.696 14.8005 173.919C15.3097 174.138 15.6714 174.538 15.8856 175.118Z" fill="#EC1919"/>
<path d="M33.1316 168.306L33.4782 169.244L34.3651 168.783L34.0185 167.845L33.1316 168.306ZM18.6176 175.864L17.7306 176.326L18.0772 177.264L18.9642 176.802L18.6176 175.864ZM17.2809 172.246L16.9343 171.308L16.0473 171.77L16.3939 172.708L17.2809 172.246ZM31.7948 164.689L32.6818 164.227L32.3352 163.289L31.4482 163.751L31.7948 164.689ZM15.8935 176.877L16.7781 177.181L16.781 177.172L15.8935 176.877ZM13.2666 178.245L13.685 177.27L13.6776 177.267L13.2666 178.245ZM12.1736 175.287L13.0552 175.599L13.0583 175.59L13.0612 175.582L12.1736 175.287ZM14.8005 173.919L15.2119 172.941L15.2114 172.941L14.8005 173.919ZM32.7849 167.368L18.271 174.926L18.9642 176.802L33.4782 169.244L32.7849 167.368ZM19.5045 175.402L18.1678 171.784L16.3939 172.708L17.7306 176.326L19.5045 175.402ZM17.6275 173.184L32.1414 165.627L31.4482 163.751L16.9343 171.308L17.6275 173.184ZM30.9079 165.151L32.2446 168.768L34.0185 167.845L32.6818 164.227L30.9079 165.151ZM14.9986 175.579C15.1255 175.923 15.1239 176.239 15.006 176.582L16.781 177.172C17.076 176.315 17.0691 175.458 16.7726 174.656L14.9986 175.579ZM15.009 176.573C14.8886 176.915 14.7142 177.111 14.4624 177.242L15.1556 179.118C15.9244 178.718 16.4729 178.046 16.778 177.181L15.009 176.573ZM14.4624 177.242C14.2015 177.378 13.9647 177.394 13.685 177.27L12.8483 179.22C13.592 179.548 14.3834 179.521 15.1556 179.118L14.4624 177.242ZM13.6776 177.267C13.3806 177.139 13.1841 176.928 13.059 176.589L11.2851 177.513C11.5835 178.32 12.1166 178.905 12.8557 179.223L13.6776 177.267ZM13.059 176.589C12.9305 176.241 12.9358 175.93 13.0552 175.599L11.292 174.975C10.9811 175.837 10.9853 176.702 11.2851 177.513L13.059 176.589ZM13.0612 175.582C13.174 175.254 13.3439 175.057 13.6047 174.921L12.9115 173.045C12.1393 173.447 11.5861 174.12 11.2861 174.992L13.0612 175.582ZM13.6047 174.921C13.8565 174.79 14.0965 174.771 14.3896 174.897L15.2114 172.941C14.4685 172.621 13.6803 172.645 12.9115 173.045L13.6047 174.921ZM14.3891 174.897C14.6707 175.018 14.8683 175.227 14.9986 175.579L16.7726 174.656C16.4746 173.849 15.9488 173.259 15.2119 172.941L14.3891 174.897Z" fill="#A80A0A"/>
<path d="M25.894 134.869C26.0053 136.463 25.7519 137.879 25.1337 139.117C24.5156 140.355 23.5999 141.358 22.3868 142.126C21.1732 142.888 19.7253 143.351 18.043 143.517C16.3608 143.682 14.8649 143.508 13.5551 142.995C12.2449 142.475 11.1992 141.664 10.4178 140.564C9.63646 139.464 9.19014 138.117 9.07886 136.523C8.96759 134.929 9.22102 133.513 9.83916 132.275C10.4573 131.037 11.3767 130.037 12.5974 129.275C13.8176 128.506 15.2688 128.038 16.951 127.873C18.6333 127.707 20.1259 127.885 21.4291 128.406C22.7317 128.92 23.7737 129.727 24.5551 130.827C25.3364 131.927 25.7827 133.275 25.894 134.869ZM22.8179 135.15C22.7575 134.286 22.4703 133.586 21.9562 133.052C21.435 132.518 20.7616 132.149 19.9361 131.945C19.11 131.734 18.2022 131.677 17.2127 131.774C16.2161 131.872 15.325 132.106 14.5395 132.476C13.7465 132.839 13.1299 133.335 12.6898 133.963C12.2498 134.592 12.0599 135.338 12.1202 136.202C12.182 137.088 12.4738 137.801 12.9955 138.342C13.5167 138.876 14.1938 139.248 15.0269 139.458C15.8525 139.662 16.7636 139.715 17.7602 139.617C18.7497 139.52 19.6375 139.29 20.4235 138.927C21.209 138.558 21.8218 138.059 22.2618 137.43C22.6944 136.796 22.8797 136.036 22.8179 135.15Z" fill="#EC1919"/>
<path d="M25.1337 139.117L26.0229 139.546L26.0229 139.546L25.1337 139.117ZM22.3868 142.126L22.898 142.972L22.9018 142.97L22.3868 142.126ZM13.5551 142.995L13.1662 143.929L13.1703 143.93L13.5551 142.995ZM10.4178 140.564L11.2354 139.967L11.2354 139.967L10.4178 140.564ZM9.83916 132.275L10.7284 132.704L10.7284 132.704L9.83916 132.275ZM12.5974 129.275L13.1067 130.122L13.1105 130.12L12.5974 129.275ZM21.4291 128.406L21.0381 129.339L21.0422 129.341L21.4291 128.406ZM24.5551 130.827L23.7375 131.424L23.7375 131.424L24.5551 130.827ZM21.9562 133.052L22.6828 132.345L22.6778 132.34L21.9562 133.052ZM19.9361 131.945L19.6648 132.917L19.6723 132.919L19.9361 131.945ZM14.5395 132.476L14.9323 133.386L14.9419 133.381L14.5395 132.476ZM12.6898 133.963L11.8793 133.402L11.8793 133.402L12.6898 133.963ZM12.9955 138.342L12.2698 139.05L12.2739 139.054L12.9955 138.342ZM15.0269 139.458L14.7583 140.431L14.7631 140.432L15.0269 139.458ZM20.4235 138.927L20.8187 139.836L20.8258 139.833L20.4235 138.927ZM22.2618 137.43L23.0724 137.992L23.08 137.981L22.2618 137.43ZM24.8988 134.967C24.9996 136.411 24.7677 137.64 24.2445 138.687L26.0229 139.546C26.736 138.118 27.011 136.515 26.8892 134.771L24.8988 134.967ZM24.2445 138.687C23.7144 139.749 22.9316 140.611 21.8718 141.283L22.9018 142.97C24.2683 142.104 25.3167 140.96 26.0229 139.546L24.2445 138.687ZM21.8756 141.28C20.8199 141.943 19.5295 142.366 17.9734 142.519L18.1127 144.514C19.921 144.336 21.5265 143.833 22.898 142.972L21.8756 141.28ZM17.9734 142.519C16.4175 142.672 15.0815 142.507 13.94 142.06L13.1703 143.93C14.6482 144.509 16.3042 144.692 18.1127 144.514L17.9734 142.519ZM13.9441 142.061C12.7986 141.607 11.9045 140.909 11.2354 139.967L9.60026 141.161C10.4939 142.42 11.6913 143.343 13.1662 143.929L13.9441 142.061ZM11.2354 139.967C10.5741 139.036 10.1749 137.869 10.0741 136.425L8.08367 136.621C8.2054 138.365 8.69886 139.892 9.60026 141.161L11.2354 139.967ZM10.0741 136.425C9.97324 134.981 10.2052 133.752 10.7284 132.704L8.94996 131.845C8.23684 133.274 7.96193 134.877 8.08367 136.621L10.0741 136.425ZM10.7284 132.704C11.2572 131.645 12.0414 130.787 13.1067 130.122L12.0881 128.428C10.712 129.287 9.65742 130.429 8.94996 131.845L10.7284 132.704ZM13.1105 130.12C14.1731 129.45 15.4663 129.023 17.0207 128.87L16.8814 126.875C15.0713 127.053 13.4621 127.561 12.0843 128.43L13.1105 130.12ZM17.0207 128.87C18.5752 128.718 19.9054 128.886 21.0381 129.339L21.8201 127.473C20.3465 126.884 18.6913 126.697 16.8814 126.875L17.0207 128.87ZM21.0422 129.341C22.178 129.789 23.0681 130.482 23.7375 131.424L25.3726 130.23C24.4793 128.972 23.2854 128.051 21.816 127.472L21.0422 129.341ZM23.7375 131.424C24.3988 132.356 24.798 133.522 24.8988 134.967L26.8892 134.771C26.7675 133.027 26.274 131.499 25.3726 130.23L23.7375 131.424ZM23.8131 135.052C23.7393 133.994 23.3781 133.068 22.6828 132.345L21.2296 133.759C21.5625 134.105 21.7758 134.577 21.8227 135.248L23.8131 135.052ZM22.6778 132.34C22.0155 131.662 21.1761 131.213 20.1999 130.971L19.6723 132.919C20.3472 133.086 20.8545 133.375 21.2346 133.764L22.6778 132.34ZM20.2074 130.973C19.2548 130.73 18.2299 130.67 17.1431 130.777L17.2823 132.772C18.1746 132.684 18.9653 132.738 19.6648 132.917L20.2074 130.973ZM17.1431 130.777C16.0501 130.884 15.0437 131.144 14.1372 131.57L14.9419 133.381C15.6063 133.069 16.3821 132.86 17.2823 132.772L17.1431 130.777ZM14.1468 131.566C13.2109 131.995 12.44 132.602 11.8793 133.402L13.5003 134.525C13.8199 134.069 14.2821 133.684 14.9323 133.386L14.1468 131.566ZM11.8793 133.402C11.2842 134.251 11.0509 135.239 11.125 136.3L13.1154 136.104C13.0688 135.437 13.2153 134.932 13.5003 134.525L11.8793 133.402ZM11.125 136.3C11.2002 137.376 11.5645 138.319 12.2698 139.05L13.7212 137.634C13.3831 137.283 13.1639 136.799 13.1154 136.104L11.125 136.3ZM12.2739 139.054C12.9361 139.732 13.7782 140.183 14.7583 140.431L15.2956 138.486C14.6095 138.312 14.0973 138.019 13.7171 137.63L12.2739 139.054ZM14.7631 140.432C15.7136 140.667 16.7394 140.722 17.8298 140.615L17.6905 138.62C16.7878 138.709 15.9914 138.658 15.2907 138.484L14.7631 140.432ZM17.8298 140.615C18.9141 140.508 19.9145 140.253 20.8187 139.836L20.0283 138.018C19.3605 138.327 18.5854 138.532 17.6905 138.62L17.8298 140.615ZM20.8258 139.833C21.7517 139.397 22.5146 138.788 23.0724 137.992L21.4513 136.869C21.1289 137.329 20.6663 137.718 20.0212 138.022L20.8258 139.833ZM23.08 137.981C23.6646 137.123 23.888 136.125 23.8131 135.052L21.8227 135.248C21.8715 135.946 21.7241 136.469 21.4437 136.88L23.08 137.981Z" fill="#A80A0A"/>
<path d="M26.7628 107.162L11.0919 102.451L11.872 98.7941L14.4838 99.5792L14.5194 99.4125C13.677 98.8489 13.0866 98.1392 12.748 97.2835C12.4041 96.4188 12.3299 95.528 12.5255 94.6111C12.57 94.4028 12.6298 94.1731 12.7051 93.9223C12.775 93.6624 12.8454 93.4508 12.9165 93.2873L16.3139 94.3086C16.2254 94.452 16.1237 94.6912 16.0088 95.0263C15.8886 95.3523 15.7944 95.6751 15.7262 95.9946C15.5795 96.6823 15.5939 97.3444 15.7693 97.9811C15.9394 98.6087 16.2462 99.1555 16.6896 99.6214C17.133 100.087 17.688 100.42 18.3546 100.621L27.5674 103.39L26.7628 107.162Z" fill="#EC1919"/>
<path d="M26.7628 107.162L26.5541 108.14L27.5118 108.428L27.7204 107.45L26.7628 107.162ZM11.0919 102.451L10.1342 102.163L9.92557 103.141L10.8832 103.429L11.0919 102.451ZM11.872 98.7941L12.0807 97.8161L11.123 97.5282L10.9144 98.5062L11.872 98.7941ZM14.4838 99.5792L14.2752 100.557L15.2329 100.845L15.4415 99.8671L14.4838 99.5792ZM14.5194 99.4125L15.4771 99.7004L15.63 98.9836L15.0067 98.5666L14.5194 99.4125ZM12.748 97.2835L13.6507 96.9547L13.6499 96.9528L12.748 97.2835ZM12.7051 93.9223L13.6427 94.2882L13.6468 94.2748L13.6504 94.2612L12.7051 93.9223ZM12.9165 93.2873L13.1251 92.3093L12.34 92.0733L12.0183 92.8133L12.9165 93.2873ZM16.3139 94.3086L17.1499 94.9018L17.8696 93.7356L16.5225 93.3306L16.3139 94.3086ZM16.0088 95.0263L16.9273 95.4496L16.9312 95.4391L16.9348 95.4286L16.0088 95.0263ZM15.7693 97.9811L16.7114 97.7709L16.7102 97.7664L15.7693 97.9811ZM27.5674 103.39L28.5251 103.678L28.7337 102.7L27.776 102.412L27.5674 103.39ZM26.9714 106.184L11.3005 101.473L10.8832 103.429L26.5541 108.14L26.9714 106.184ZM12.0495 102.739L12.8297 99.082L10.9144 98.5062L10.1342 102.163L12.0495 102.739ZM11.6634 99.7721L14.2752 100.557L14.6925 98.6012L12.0807 97.8161L11.6634 99.7721ZM15.4415 99.8671L15.4771 99.7004L13.5617 99.1246L13.5262 99.2913L15.4415 99.8671ZM15.0067 98.5666C14.3274 98.112 13.896 97.5747 13.6507 96.9547L11.8453 97.6123C12.2771 98.7036 13.0267 99.5857 14.0321 100.258L15.0067 98.5666ZM13.6499 96.9528C13.3893 96.2974 13.3287 95.6231 13.4832 94.899L11.5679 94.3233C11.3311 95.4329 11.4189 96.5402 11.846 97.6141L13.6499 96.9528ZM13.4832 94.899C13.5209 94.7223 13.5735 94.5192 13.6427 94.2882L11.7674 93.5563C11.6862 93.8271 11.6191 94.0832 11.5679 94.3233L13.4832 94.899ZM13.6504 94.2612C13.7133 94.0275 13.7693 93.8657 13.8147 93.7614L12.0183 92.8133C11.9216 93.0358 11.8366 93.2973 11.7597 93.5834L13.6504 94.2612ZM12.7079 94.2653L16.1053 95.2866L16.5225 93.3306L13.1251 92.3093L12.7079 94.2653ZM15.4779 93.7154C15.3314 93.9529 15.2018 94.277 15.0828 94.6239L16.9348 95.4286C17.0456 95.1054 17.1194 94.9511 17.1499 94.9018L15.4779 93.7154ZM15.0903 94.603C14.9551 94.9696 14.8473 95.3376 14.7686 95.7067L16.6839 96.2825C16.7415 96.0126 16.8221 95.735 16.9273 95.4496L15.0903 94.603ZM14.7686 95.7067C14.5906 96.5409 14.6027 97.3763 14.8284 98.1958L16.7102 97.7664C16.5851 97.3125 16.5685 96.8236 16.6839 96.2825L14.7686 95.7067ZM14.8272 98.1913C15.0453 98.9959 15.4444 99.7093 16.018 100.312L17.3612 98.9309C17.0479 98.6017 16.8335 98.2215 16.7114 97.7709L14.8272 98.1913ZM16.018 100.312C16.6059 100.93 17.3273 101.353 18.146 101.599L18.5632 99.6428C18.0488 99.4882 17.6602 99.245 17.3612 98.9309L16.018 100.312ZM18.146 101.599L27.3588 104.368L27.776 102.412L18.5632 99.6428L18.146 101.599ZM26.6097 103.102L25.8051 106.874L27.7204 107.45L28.5251 103.678L26.6097 103.102Z" fill="#A80A0A"/>
<path d="M56.4233 52.6856C55.6617 53.3892 54.8745 53.8686 54.0616 54.1237C53.2501 54.368 52.4664 54.3481 51.7106 54.0641C50.96 53.7753 50.2906 53.1824 49.7026 52.2856C49.1963 51.5134 48.9029 50.7593 48.8223 50.0231C48.7416 49.2869 48.8185 48.5673 49.0529 47.8644C49.2872 47.1614 49.625 46.4821 50.0663 45.8264C50.5089 45.16 50.999 44.5212 51.5365 43.9102C52.1862 43.1764 52.7087 42.5744 53.1041 42.1042C53.4955 41.628 53.7437 41.2271 53.8484 40.9014C53.9545 40.565 53.9063 40.2423 53.7038 39.9335L53.6688 39.88C53.2287 39.2089 52.7132 38.8506 52.1222 38.8053C51.5313 38.76 50.9071 39.041 50.2499 39.6483C49.5561 40.2893 49.1186 40.97 48.9376 41.6904C48.7618 42.406 48.7573 43.0635 48.9241 43.6628L45.9989 45.6788C45.6624 44.6545 45.551 43.6415 45.6649 42.6398C45.7749 41.6321 46.0852 40.6682 46.596 39.748C47.1029 38.8219 47.7762 37.9709 48.6161 37.1949C49.1951 36.6599 49.8222 36.2045 50.4973 35.8288C51.1724 35.453 51.8641 35.2241 52.5724 35.1418C53.2769 35.0537 53.9712 35.1799 54.6554 35.5207C55.3447 35.8566 55.9873 36.4789 56.5831 37.3876L62.5882 46.5462L59.8651 49.0621L58.6326 47.1823L58.5387 47.269C58.6158 47.8082 58.6069 48.3887 58.512 49.0105C58.4184 49.6215 58.203 50.2449 57.866 50.8806C57.5302 51.5055 57.0493 52.1072 56.4233 52.6856ZM55.605 49.6362C56.1736 49.1108 56.5829 48.5276 56.8327 47.8867C57.0787 47.2398 57.1737 46.5989 57.1176 45.964C57.0667 45.3243 56.8758 44.752 56.5448 44.2472L55.4874 42.6346C55.4533 42.7997 55.3526 43.0167 55.1855 43.2856C55.0235 43.5496 54.8297 43.8289 54.6039 44.1233C54.3781 44.4178 54.1511 44.7038 53.9227 44.9816C53.6944 45.2593 53.496 45.4998 53.3277 45.703C52.948 46.1587 52.6399 46.6151 52.4034 47.072C52.1669 47.529 52.0398 47.9802 52.022 48.4259C52.0003 48.8655 52.1258 49.2932 52.3984 49.709C52.7878 50.3029 53.2723 50.5754 53.8517 50.5265C54.4311 50.4776 55.0156 50.1808 55.605 49.6362Z" fill="#EC1919"/>
<path d="M54.0616 54.1237L54.2551 55.1664L54.2644 55.1635L54.0616 54.1237ZM51.7106 54.0641L51.3939 55.089L51.3997 55.0912L51.7106 54.0641ZM48.8223 50.0231L47.9131 50.2028L47.9131 50.2028L48.8223 50.0231ZM49.0529 47.8644L48.2012 47.5071L48.2012 47.5071L49.0529 47.8644ZM50.0663 45.8264L50.7764 46.4732L50.7803 46.4674L50.0663 45.8264ZM51.5365 43.9102L50.9153 43.1484L50.913 43.151L51.5365 43.9102ZM53.1041 42.1042L53.7432 42.8453L53.7508 42.8361L53.1041 42.1042ZM53.8484 40.9014L54.7043 41.2461L54.7064 41.2392L53.8484 40.9014ZM52.1222 38.8053L52.2186 37.7306L52.2186 37.7306L52.1222 38.8053ZM48.9376 41.6904L48.0593 41.4243L48.0577 41.4307L48.9376 41.6904ZM48.9241 43.6628L49.3637 44.5862L50.0293 44.1276L49.7965 43.2912L48.9241 43.6628ZM45.9989 45.6788L45.1421 46.1016L45.5155 47.2383L46.4385 46.6022L45.9989 45.6788ZM45.6649 42.6398L46.5734 42.7397L46.574 42.7341L45.6649 42.6398ZM46.596 39.748L47.3577 40.3104L47.3611 40.3043L46.596 39.748ZM52.5724 35.1418L52.6259 36.2136L52.6329 36.2127L52.5724 35.1418ZM54.6554 35.5207L54.2691 36.5149L54.2754 36.518L54.6554 35.5207ZM62.5882 46.5462L63.1365 47.3824L63.871 46.7038L63.3227 45.8676L62.5882 46.5462ZM59.8651 49.0621L59.1307 49.7407L59.679 50.577L60.4135 49.8983L59.8651 49.0621ZM58.6326 47.1823L59.3671 46.5036L58.8188 45.6674L58.0843 46.346L58.6326 47.1823ZM58.5387 47.269L57.9904 46.4327L57.5427 46.8464L57.6346 47.4889L58.5387 47.269ZM58.512 49.0105L59.4139 49.1594L59.414 49.1588L58.512 49.0105ZM57.866 50.8806L58.6354 51.4288L58.6385 51.4231L57.866 50.8806ZM56.8327 47.8867L57.6635 48.302L57.6672 48.2924L56.8327 47.8867ZM57.1176 45.964L56.2049 46.107L56.2058 46.1178L57.1176 45.964ZM55.4874 42.6346L56.2219 41.956L55.06 40.1839L54.5973 42.4205L55.4874 42.6346ZM55.1855 43.2856L54.4529 42.6736L54.4492 42.6796L55.1855 43.2856ZM54.6039 44.1233L55.2737 44.8261L55.2737 44.8261L54.6039 44.1233ZM53.3277 45.703L53.9699 46.4404L53.9719 46.438L53.3277 45.703ZM52.4034 47.072L51.6254 46.54L51.6254 46.54L52.4034 47.072ZM52.022 48.4259L52.9371 48.4447L52.9376 48.4328L52.022 48.4259ZM53.8517 50.5265L53.8805 51.6007L53.8805 51.6007L53.8517 50.5265ZM55.875 51.8493C55.2018 52.4713 54.5303 52.8732 53.8589 53.0839L54.2644 55.1635C55.2187 54.864 56.1216 54.3072 56.9717 53.5218L55.875 51.8493ZM53.8681 53.081C53.2187 53.2765 52.6101 53.2582 52.0214 53.037L51.3997 55.0912C52.3228 55.438 53.2816 55.4594 54.2551 55.1663L53.8681 53.081ZM52.0273 53.0392C51.4777 52.8278 50.9434 52.3791 50.4371 51.6069L48.9681 52.9642C49.6379 53.9857 50.4422 54.7227 51.3939 55.0889L52.0273 53.0392ZM50.4371 51.6069C49.995 50.9328 49.7865 50.3458 49.7314 49.8434L47.9131 50.2028C48.0193 51.1728 48.3976 52.0941 48.9681 52.9642L50.4371 51.6069ZM49.7314 49.8434C49.6705 49.2868 49.7277 48.752 49.9046 48.2216L48.2012 47.5071C47.9093 48.3827 47.8128 49.287 47.9131 50.2028L49.7314 49.8434ZM49.9046 48.2216C50.101 47.6324 50.3885 47.0496 50.7764 46.4732L49.3562 45.1797C48.8616 45.9147 48.4734 46.6905 48.2012 47.5071L49.9046 48.2216ZM50.7803 46.4674C51.194 45.8444 51.6536 45.245 52.1599 44.6694L50.913 43.151C50.3443 43.7975 49.8238 44.4757 49.3523 45.1855L50.7803 46.4674ZM52.1576 44.672C52.8103 43.9349 53.3395 43.3253 53.7431 42.8452L52.465 41.3631C52.078 41.8234 51.5621 42.4178 50.9153 43.1484L52.1576 44.672ZM53.7508 42.8361C54.1668 42.3301 54.5283 41.7929 54.7042 41.2461L52.9926 40.5567C52.959 40.6613 52.8243 40.926 52.4574 41.3723L53.7508 42.8361ZM54.7064 41.2392C54.9374 40.5067 54.8006 39.8074 54.4383 39.2549L52.9693 40.6121C52.9858 40.6372 52.992 40.6517 52.9932 40.6549C52.9943 40.6575 52.9912 40.6504 52.9888 40.6346C52.9864 40.6184 52.9859 40.6006 52.9873 40.5842C52.9888 40.5681 52.9914 40.5606 52.9904 40.5636L54.7064 41.2392ZM54.4383 39.2549L54.4032 39.2014L52.9343 40.5586L52.9693 40.6121L54.4383 39.2549ZM54.4032 39.2014C53.8494 38.3567 53.1219 37.7999 52.2186 37.7306L52.0258 39.88C52.3045 39.9014 52.608 40.061 52.9343 40.5586L54.4032 39.2014ZM52.2186 37.7306C51.3231 37.6619 50.4728 38.0994 49.7015 38.812L50.7982 40.4845C51.3414 39.9826 51.7394 39.858 52.0258 39.88L52.2186 37.7306ZM49.7015 38.812C48.907 39.5461 48.3142 40.41 48.0593 41.4243L49.8159 41.9566C49.9231 41.53 50.2051 41.0325 50.7982 40.4845L49.7015 38.812ZM48.0577 41.4307C47.8387 42.3222 47.8203 43.203 48.0518 44.0345L49.7965 43.2912C49.6943 42.924 49.6849 42.4898 49.8175 41.9501L48.0577 41.4307ZM48.4845 42.7395L45.5593 44.7554L46.4385 46.6022L49.3637 44.5862L48.4845 42.7395ZM46.8558 45.256C46.5675 44.3785 46.4819 43.5446 46.5733 42.7397L44.7564 42.5398C44.6202 43.7384 44.7573 44.9305 45.1421 46.1016L46.8558 45.256ZM46.574 42.7341C46.6646 41.9032 46.9204 41.0983 47.3577 40.3104L45.8343 39.1857C45.2501 40.2381 44.8851 41.361 44.7558 42.5455L46.574 42.7341ZM47.3611 40.3043C47.8021 39.4986 48.3979 38.7393 49.1644 38.0312L48.0678 36.3586C47.1545 37.2024 46.4037 38.1452 45.8309 39.1918L47.3611 40.3043ZM49.1644 38.0312C49.6855 37.5497 50.2508 37.1389 50.8619 36.7987L50.1326 34.8588C49.3936 35.2702 48.7047 35.7701 48.0678 36.3586L49.1644 38.0312ZM50.8619 36.7987C51.4421 36.4758 52.0288 36.2829 52.6259 36.2135L52.519 34.0701C51.6994 34.1653 50.9026 34.4303 50.1326 34.8588L50.8619 36.7987ZM52.6329 36.2127C53.1734 36.1451 53.7147 36.2388 54.2691 36.5149L55.0416 34.5265C54.2278 34.1211 53.3805 33.9623 52.5119 34.071L52.6329 36.2127ZM54.2754 36.518C54.7871 36.7673 55.317 37.2554 55.8486 38.0662L57.3176 36.709C56.6576 35.7024 55.9023 34.9458 55.0353 34.5233L54.2754 36.518ZM55.8486 38.0662L61.8537 47.2248L63.3227 45.8676L57.3176 36.709L55.8486 38.0662ZM62.0399 45.7099L59.3168 48.2258L60.4135 49.8983L63.1365 47.3824L62.0399 45.7099ZM60.5996 48.3835L59.3671 46.5036L57.8981 47.8609L59.1307 49.7407L60.5996 48.3835ZM58.0843 46.346L57.9904 46.4327L59.087 48.1053L59.1809 48.0185L58.0843 46.346ZM57.6346 47.4889C57.6921 47.8913 57.6887 48.346 57.6099 48.8621L59.414 49.1588C59.525 48.4314 59.5394 47.7251 59.4428 47.0491L57.6346 47.4889ZM57.61 48.8615C57.5414 49.3097 57.3785 49.8006 57.0934 50.3381L58.6385 51.4231C59.0276 50.6891 59.2954 49.9332 59.4139 49.1594L57.61 48.8615ZM57.0965 50.3324C56.8331 50.8226 56.4359 51.3311 55.875 51.8493L56.9717 53.5218C57.6628 52.8833 58.2273 52.1885 58.6354 51.4287L57.0965 50.3324ZM56.1533 50.4724C56.8192 49.8573 57.3379 49.137 57.6635 48.302L56.002 47.4714C55.8278 47.9183 55.5281 48.3643 55.0567 48.7999L56.1533 50.4724ZM57.6672 48.2924C57.9743 47.4845 58.1036 46.6509 58.0293 45.8101L56.2058 46.1178C56.2437 46.5468 56.1831 46.995 55.9983 47.481L57.6672 48.2924ZM58.0302 45.821C57.9636 44.9834 57.7104 44.2261 57.2792 43.5685L55.8103 44.9258C56.0412 45.2779 56.1698 45.6652 56.2049 46.107L58.0302 45.821ZM57.2792 43.5685L56.2219 41.956L54.7529 43.3132L55.8103 44.9258L57.2792 43.5685ZM54.5973 42.4205C54.6062 42.3773 54.612 42.3786 54.5855 42.4356C54.5611 42.4884 54.5193 42.5668 54.4529 42.6736L55.918 43.8975C56.1028 43.6003 56.2976 43.2354 56.3776 42.8487L54.5973 42.4205ZM54.4492 42.6796C54.3118 42.9037 54.1411 43.1506 53.9341 43.4205L55.2737 44.8261C55.5183 44.5072 55.7353 44.1955 55.9217 43.8916L54.4492 42.6796ZM53.9341 43.4205C53.7157 43.7053 53.4963 43.9817 53.276 44.2497L54.5694 45.7135C54.8058 45.426 55.0406 45.1302 55.2737 44.8261L53.9341 43.4205ZM53.276 44.2497C53.0482 44.5267 52.8508 44.7662 52.6836 44.968L53.9719 46.438C54.1413 46.2335 54.3405 45.9919 54.5694 45.7135L53.276 44.2497ZM52.6855 44.9657C52.2635 45.4722 51.9067 45.9964 51.6254 46.54L53.1814 47.6041C53.3731 47.2337 53.6325 46.8452 53.9699 46.4403L52.6855 44.9657ZM51.6254 46.54C51.321 47.1282 51.1327 47.7586 51.1064 48.4189L52.9376 48.4328C52.9468 48.2019 53.0128 47.9297 53.1814 47.6041L51.6254 46.54ZM51.1069 48.407C51.0702 49.1522 51.2914 49.8194 51.6639 50.3876L53.1329 49.0304C52.9602 48.767 52.9304 48.5788 52.937 48.4447L51.1069 48.407ZM51.6639 50.3876C52.2069 51.2157 52.9615 51.6783 53.8805 51.6007L53.8228 49.4523C53.583 49.4726 53.3688 49.3902 53.1329 49.0304L51.6639 50.3876ZM53.8805 51.6007C54.6925 51.5321 55.4539 51.1186 56.1533 50.4724L55.0567 48.7999C54.5772 49.243 54.1697 49.423 53.8228 49.4523L53.8805 51.6007Z" fill="#A80A0A"/>
<path d="M80.7259 18.3186L81.5547 21.1841L72.8433 24.7342L72.0146 21.8687L80.7259 18.3186ZM73.0761 17.2261L76.6475 15.7707L80.9154 30.5282C81.0594 31.0262 81.2422 31.3788 81.4639 31.5859C81.6901 31.7835 81.9388 31.8805 82.2097 31.8769C82.4807 31.8732 82.7642 31.8111 83.0602 31.6905C83.2838 31.5993 83.4827 31.4992 83.657 31.39C83.8379 31.2782 83.9737 31.1885 84.0645 31.121L85.5039 33.772C85.3329 33.918 85.0816 34.1042 84.7501 34.3308C84.4252 34.5548 84.0115 34.7767 83.509 34.9968C82.6225 35.3886 81.7763 35.5771 80.9706 35.5622C80.1629 35.5405 79.4539 35.2879 78.8436 34.8045C78.2398 34.3184 77.7991 33.5827 77.5216 32.5976L73.0761 17.2261Z" fill="#EC1919"/>
<path d="M80.7259 18.3186L81.652 17.9412L81.3742 16.9806L80.4481 17.358L80.7259 18.3186ZM81.5547 21.1841L81.8325 22.1448L82.7585 21.7674L82.4807 20.8068L81.5547 21.1841ZM72.8433 24.7342L71.9172 25.1116L72.195 26.0722L73.1211 25.6948L72.8433 24.7342ZM72.0146 21.8687L71.7367 20.908L70.8107 21.2854L71.0885 22.246L72.0146 21.8687ZM73.0761 17.2261L72.7983 16.2655L71.8722 16.6428L72.15 17.6035L73.0761 17.2261ZM76.6475 15.7707L77.5735 15.3933L77.2957 14.4327L76.3697 14.8101L76.6475 15.7707ZM81.4639 31.5859L80.7938 32.3866L80.8045 32.3966L80.8155 32.4062L81.4639 31.5859ZM82.2097 31.8769L82.1419 32.9089L82.1419 32.9089L82.2097 31.8769ZM83.657 31.39L83.2259 30.5075L83.2207 30.5107L83.657 31.39ZM84.0645 31.121L84.9112 30.5497L84.4214 29.6476L83.5574 30.2901L84.0645 31.121ZM85.5039 33.772L86.0684 34.5571L86.7645 33.963L86.3506 33.2007L85.5039 33.772ZM84.7501 34.3308L84.278 33.4749L84.2747 33.4773L84.7501 34.3308ZM83.509 34.9968L83.2073 34.0463L83.2041 34.0477L83.509 34.9968ZM80.9706 35.5622L80.8665 36.594L80.874 36.5941L80.9706 35.5622ZM78.8436 34.8045L78.2218 35.6471L78.2272 35.6514L78.8436 34.8045ZM77.5216 32.5976L78.4496 32.2269L78.4476 32.2202L77.5216 32.5976ZM79.7999 18.696L80.6286 21.5615L82.4807 20.8068L81.652 17.9412L79.7999 18.696ZM81.2768 20.2235L72.5655 23.7736L73.1211 25.6948L81.8325 22.1448L81.2768 20.2235ZM73.7693 24.3568L72.9406 21.4913L71.0885 22.246L71.9172 25.1116L73.7693 24.3568ZM72.2924 22.8293L81.0038 19.2792L80.4481 17.358L71.7367 20.908L72.2924 22.8293ZM73.3539 18.1867L76.9253 16.7313L76.3697 14.8101L72.7983 16.2655L73.3539 18.1867ZM75.7214 16.1481L79.9893 30.9055L81.8414 30.1508L77.5735 15.3933L75.7214 16.1481ZM79.9893 30.9055C80.1542 31.4758 80.3991 32.0177 80.7938 32.3866L82.134 30.7852C82.0854 30.7399 81.9646 30.5766 81.8414 30.1508L79.9893 30.9055ZM80.8155 32.4062C81.1814 32.7258 81.6288 32.9158 82.1419 32.9089L82.2776 30.8448C82.2487 30.8452 82.1989 30.8413 82.1123 30.7656L80.8155 32.4062ZM82.1419 32.9089C82.5443 32.9035 82.9453 32.8111 83.338 32.6511L82.7823 30.7298C82.5831 30.811 82.4171 30.843 82.2776 30.8448L82.1419 32.9089ZM83.338 32.6511C83.606 32.5419 83.8595 32.4158 84.0933 32.2694L83.2207 30.5107C83.106 30.5825 82.9616 30.6568 82.7823 30.7298L83.338 32.6511ZM84.0882 32.2726C84.2764 32.1562 84.4432 32.0474 84.5715 31.952L83.5574 30.2901C83.5042 30.3296 83.3994 30.4002 83.2259 30.5075L84.0882 32.2726ZM83.2178 31.6923L84.6572 34.3433L86.3506 33.2007L84.9112 30.5497L83.2178 31.6923ZM84.9394 32.9869C84.8126 33.095 84.5986 33.2558 84.2781 33.475L85.2222 35.1867C85.5647 34.9526 85.8531 34.7409 86.0684 34.5571L84.9394 32.9869ZM84.2747 33.4773C84.0226 33.651 83.6723 33.8427 83.2073 34.0463L83.8108 35.9473C84.3508 35.7108 84.8279 35.4585 85.2256 35.1844L84.2747 33.4773ZM83.2041 34.0477C82.427 34.3911 81.7181 34.5423 81.0672 34.5302L80.874 36.5941C81.8345 36.6119 82.8179 36.3861 83.814 35.9459L83.2041 34.0477ZM81.0747 34.5304C80.4503 34.5136 79.9206 34.3224 79.46 33.9576L78.2272 35.6514C78.9873 36.2534 79.8756 36.5674 80.8665 36.594L81.0747 34.5304ZM79.4654 33.9619C79.0409 33.6201 78.6872 33.0703 78.4495 32.2269L76.5936 32.9683C76.9111 34.0952 77.4387 35.0166 78.2218 35.6471L79.4654 33.9619ZM78.4476 32.2202L74.0022 16.8487L72.15 17.6035L76.5955 32.975L78.4476 32.2202Z" fill="#A80A0A"/>
<path d="M142.817 21.6807L141.988 24.5462L133.277 20.9962L134.106 18.1307L142.817 21.6807ZM137.346 15.241L140.917 16.6964L136.649 31.4539C136.505 31.9519 136.467 32.3635 136.535 32.6885C136.611 33.0094 136.757 33.2672 136.973 33.4619C137.188 33.6566 137.444 33.8143 137.74 33.9349C137.964 34.026 138.173 34.092 138.367 34.133C138.567 34.1766 138.721 34.2048 138.827 34.2178L138.592 37.3592C138.381 37.3497 138.086 37.3136 137.708 37.2507C137.335 37.1905 136.894 37.064 136.384 36.8713C135.481 36.5341 134.716 36.0659 134.088 35.4667C133.462 34.8607 133.033 34.1445 132.801 33.3179C132.577 32.4941 132.609 31.5923 132.9 30.6125L137.346 15.241Z" fill="#EC1919"/>
<path d="M142.817 21.6807L143.743 22.0581L144.021 21.0975L143.095 20.7201L142.817 21.6807ZM141.988 24.5462L141.711 25.5069L142.637 25.8843L142.914 24.9236L141.988 24.5462ZM133.277 20.9962L132.351 20.6188L132.073 21.5794L132.999 21.9568L133.277 20.9962ZM134.106 18.1307L134.384 17.17L133.457 16.7926L133.18 17.7533L134.106 18.1307ZM137.346 15.241L137.623 14.2804L136.697 13.903L136.42 14.8636L137.346 15.241ZM140.917 16.6964L141.843 17.0738L142.121 16.1131L141.195 15.7358L140.917 16.6964ZM136.535 32.6885L135.592 32.8318L135.595 32.8475L135.599 32.8631L136.535 32.6885ZM136.973 33.4619L136.385 34.2268L136.385 34.2268L136.973 33.4619ZM138.367 34.133L138.483 33.1222L138.477 33.121L138.367 34.133ZM138.827 34.2178L139.791 34.3843L139.871 33.3152L138.857 33.1923L138.827 34.2178ZM138.592 37.3592L138.631 38.3904L139.488 38.4291L139.555 37.5257L138.592 37.3592ZM137.708 37.2507L137.778 36.2311L137.774 36.2304L137.708 37.2507ZM136.384 36.8713L136.637 35.9012L136.634 35.9L136.384 36.8713ZM134.088 35.4667L133.472 36.205L133.478 36.2106L134.088 35.4667ZM132.801 33.3179L131.875 33.5295L131.877 33.5368L132.801 33.3179ZM132.9 30.6125L133.824 30.9966L133.826 30.9899L132.9 30.6125ZM141.891 21.3033L141.062 24.1689L142.914 24.9236L143.743 22.0581L141.891 21.3033ZM142.266 23.5856L133.555 20.0356L132.999 21.9568L141.711 25.5069L142.266 23.5856ZM134.203 21.3736L135.032 18.508L133.18 17.7533L132.351 20.6188L134.203 21.3736ZM133.828 19.0913L142.539 22.6413L143.095 20.7201L134.384 17.17L133.828 19.0913ZM137.068 16.2016L140.639 17.657L141.195 15.7358L137.623 14.2804L137.068 16.2016ZM139.991 16.319L135.723 31.0765L137.575 31.8312L141.843 17.0738L139.991 16.319ZM135.723 31.0765C135.558 31.6468 135.471 32.2529 135.592 32.8318L137.478 32.5452C137.463 32.474 137.452 32.2571 137.575 31.8312L135.723 31.0765ZM135.599 32.8631C135.722 33.382 135.977 33.8582 136.385 34.2268L137.56 32.697C137.537 32.6762 137.5 32.6368 137.471 32.514L135.599 32.8631ZM136.385 34.2268C136.705 34.516 137.07 34.7355 137.462 34.8955L138.018 32.9742C137.819 32.893 137.671 32.7972 137.56 32.697L136.385 34.2268ZM137.462 34.8955C137.73 35.0047 137.996 35.0901 138.256 35.145L138.477 33.121C138.35 33.094 138.197 33.0473 138.018 32.9742L137.462 34.8955ZM138.25 35.1438C138.459 35.1891 138.647 35.2249 138.798 35.2432L138.857 33.1923C138.795 33.1848 138.676 33.164 138.483 33.1222L138.25 35.1438ZM137.864 34.0513L137.628 37.1927L139.555 37.5257L139.791 34.3843L137.864 34.0513ZM138.552 36.3281C138.396 36.321 138.144 36.2919 137.778 36.2311L137.637 38.2703C138.029 38.3353 138.366 38.3785 138.631 38.3904L138.552 36.3281ZM137.774 36.2304C137.485 36.1837 137.11 36.0796 136.637 35.9012L136.13 37.8414C136.678 38.0485 137.186 38.1973 137.641 38.2709L137.774 36.2304ZM136.634 35.9C135.843 35.6044 135.206 35.2069 134.698 34.7228L133.478 36.2106C134.227 36.9249 135.119 37.4638 136.133 37.8426L136.634 35.9ZM134.704 34.7284C134.22 34.2599 133.901 33.7228 133.726 33.0991L131.877 33.5368C132.165 34.5661 132.704 35.4616 133.472 36.205L134.704 34.7284ZM133.728 33.1064C133.57 32.5272 133.575 31.8354 133.824 30.9966L131.976 30.2285C131.643 31.3492 131.583 32.461 131.875 33.5295L133.728 33.1064ZM133.826 30.9899L138.272 15.6184L136.42 14.8636L131.974 30.2351L133.826 30.9899Z" fill="#A80A0A"/>
<path d="M160.777 41.1285L155.519 49.1467L152.687 46.5296L164.65 28.2838L167.42 30.8431L162.905 37.7298L163.046 37.8599C163.833 37.3481 164.668 37.1417 165.55 37.2409C166.44 37.3389 167.345 37.8121 168.263 38.6604C169.098 39.4315 169.695 40.3029 170.055 41.2743C170.415 42.2458 170.513 43.2713 170.35 44.3508C170.191 45.4351 169.75 46.5296 169.026 47.6343L163.313 56.3474L160.48 53.7303L165.866 45.5161C166.47 44.5955 166.73 43.687 166.648 42.7906C166.575 41.8931 166.165 41.0998 165.419 40.4106C164.918 39.9479 164.388 39.6581 163.828 39.5413C163.277 39.4233 162.737 39.4923 162.209 39.7484C161.687 40.0092 161.209 40.4693 160.777 41.1285Z" fill="#EC1919"/>
<path d="M155.519 49.1467L154.971 49.983L155.706 50.6616L156.254 49.8253L155.519 49.1467ZM152.687 46.5296L151.952 45.851L151.404 46.6873L152.138 47.3659L152.687 46.5296ZM164.65 28.2838L165.198 27.4475L164.464 26.7689L163.916 27.6052L164.65 28.2838ZM167.42 30.8431L168.155 31.5217L168.703 30.6854L167.968 30.0068L167.42 30.8431ZM162.905 37.7298L162.17 37.0512L161.622 37.8874L162.356 38.5661L162.905 37.7298ZM163.046 37.8599L162.497 38.6962L162.987 39.1491L163.513 38.8074L163.046 37.8599ZM165.55 37.2409L165.499 38.3129L165.501 38.3131L165.55 37.2409ZM170.055 41.2743L170.893 40.8786L170.893 40.8786L170.055 41.2743ZM170.35 44.3508L169.447 44.121L169.446 44.1275L170.35 44.3508ZM163.313 56.3474L162.765 57.1836L163.499 57.8623L164.047 57.026L163.313 56.3474ZM160.48 53.7303L159.746 53.0517L159.197 53.8879L159.932 54.5665L160.48 53.7303ZM166.648 42.7906L165.736 42.8504L165.737 42.8633L166.648 42.7906ZM163.828 39.5413L163.699 40.6006L163.703 40.6014L163.828 39.5413ZM162.209 39.7484L161.831 38.7503L161.823 38.7544L162.209 39.7484ZM160.042 40.4499L154.785 48.4681L156.254 49.8253L161.511 41.8071L160.042 40.4499ZM156.068 48.3104L153.235 45.6933L152.138 47.3659L154.971 49.983L156.068 48.3104ZM153.421 47.2082L165.385 28.9624L163.916 27.6052L151.952 45.851L153.421 47.2082ZM164.102 29.12L166.872 31.6793L167.968 30.0068L165.198 27.4475L164.102 29.12ZM166.686 30.1644L162.17 37.0512L163.639 38.4084L168.155 31.5217L166.686 30.1644ZM162.356 38.5661L162.497 38.6962L163.594 37.0236L163.453 36.8935L162.356 38.5661ZM163.513 38.8074C164.151 38.3931 164.806 38.235 165.499 38.3129L165.6 36.1689C164.53 36.0484 163.516 36.303 162.578 36.9124L163.513 38.8074ZM165.501 38.3131C166.166 38.3863 166.901 38.7445 167.715 39.4966L168.811 37.8241C167.789 36.8797 166.715 36.2916 165.599 36.1686L165.501 38.3131ZM167.715 39.4966C168.445 40.1713 168.931 40.8982 169.217 41.6701L170.893 40.8786C170.459 39.7075 169.75 38.6918 168.811 37.8241L167.715 39.4966ZM169.217 41.6701C169.498 42.431 169.58 43.2378 169.447 44.121L171.252 44.5805C171.445 43.3048 171.331 42.0607 170.893 40.8786L169.217 41.6701ZM169.446 44.1275C169.318 45.0044 168.953 45.9469 168.291 46.9557L169.76 48.3129C170.548 47.1122 171.065 45.8657 171.253 44.574L169.446 44.1275ZM168.291 46.9557L162.578 55.6688L164.047 57.026L169.76 48.3129L168.291 46.9557ZM163.861 55.5111L161.029 52.894L159.932 54.5665L162.765 57.1836L163.861 55.5111ZM161.215 54.4089L166.601 46.1947L165.132 44.8375L159.746 53.0517L161.215 54.4089ZM166.601 46.1947C167.297 45.132 167.674 43.9634 167.559 42.7179L165.737 42.8633C165.787 43.4106 165.642 44.0589 165.132 44.8375L166.601 46.1947ZM167.56 42.7308C167.457 41.4657 166.872 40.41 165.967 39.5743L164.871 41.2468C165.458 41.7896 165.692 42.3206 165.736 42.8504L167.56 42.7308ZM165.967 39.5743C165.356 39.0092 164.682 38.6333 163.952 38.4811L163.703 40.6014C164.094 40.6829 164.481 40.8866 164.871 41.2468L165.967 39.5743ZM163.957 38.482C163.226 38.3255 162.511 38.4207 161.831 38.7503L162.588 40.7464C162.964 40.5639 163.328 40.5211 163.699 40.6006L163.957 38.482ZM161.823 38.7544C161.132 39.0991 160.543 39.6866 160.042 40.4499L161.511 41.8071C161.875 41.2519 162.241 40.9193 162.596 40.7423L161.823 38.7544Z" fill="#A80A0A"/>
<path d="M176.031 74.731C175.24 73.2937 174.826 71.8434 174.79 70.3803C174.762 68.919 175.091 67.5231 175.776 66.1927C176.467 64.858 177.489 63.6661 178.841 62.6172C180.171 61.5856 181.493 60.9603 182.806 60.7411C184.128 60.5239 185.348 60.7048 186.468 61.2837C187.593 61.8583 188.532 62.83 189.285 64.1989C189.772 65.0824 190.101 66.0163 190.275 67.0005C190.457 67.9866 190.448 68.9882 190.247 70.0052C190.049 71.0285 189.634 72.0342 189.001 73.0225C188.373 74.0064 187.492 74.938 186.359 75.8172L185.424 76.5419L178.957 64.7914L181.011 63.1984L185.696 71.7102C186.276 71.2513 186.718 70.7087 187.022 70.0824C187.332 69.4517 187.483 68.7883 187.476 68.0922C187.473 67.4023 187.293 66.7338 186.937 66.0867C186.557 65.396 186.071 64.9069 185.481 64.6193C184.896 64.3273 184.278 64.2244 183.629 64.3107C182.989 64.3988 182.378 64.6639 181.797 65.106L180.004 66.4966C179.252 67.0799 178.69 67.7328 178.319 68.4556C177.954 69.174 177.779 69.9179 177.794 70.6874C177.814 71.4526 178.027 72.2023 178.431 72.9365C178.701 73.4281 179.008 73.8251 179.351 74.1275C179.699 74.4256 180.077 74.6252 180.485 74.7261C180.893 74.827 181.32 74.8107 181.767 74.6771L183.184 78.0798C182.322 78.4639 181.456 78.5936 180.587 78.4689C179.727 78.346 178.904 77.9719 178.119 77.3464C177.34 76.7165 176.644 75.8447 176.031 74.731Z" fill="#EC1919"/>
<path d="M174.79 70.3803L173.864 70.4702L173.865 70.4777L174.79 70.3803ZM175.776 66.1927L174.99 65.6874L174.988 65.6896L175.776 66.1927ZM182.806 60.7411L182.732 59.6828L182.73 59.6831L182.806 60.7411ZM186.468 61.2837L186.046 62.2642L186.05 62.2661L186.468 61.2837ZM190.275 67.0005L189.367 67.2758L189.369 67.2856L190.275 67.0005ZM190.247 70.0052L189.345 69.83L189.344 69.8355L190.247 70.0052ZM189.001 73.0225L188.269 72.422L188.267 72.424L189.001 73.0225ZM185.424 76.5419L184.634 77.1547L185.116 78.0308L185.906 77.418L185.424 76.5419ZM178.957 64.7914L178.475 63.9153L177.685 64.5282L178.167 65.4042L178.957 64.7914ZM181.011 63.1984L181.801 62.5855L181.319 61.7094L180.529 62.3223L181.011 63.1984ZM185.696 71.7102L184.906 72.3231L185.392 73.2076L186.186 72.5804L185.696 71.7102ZM187.022 70.0824L186.224 69.6002L186.221 69.6051L187.022 70.0824ZM187.476 68.0922L186.55 68.165L186.551 68.1709L187.476 68.0922ZM185.481 64.6193L185.07 65.6051L185.077 65.6085L185.481 64.6193ZM183.629 64.3107L183.581 63.2486L183.577 63.2491L183.629 64.3107ZM181.797 65.106L181.322 64.2239L181.315 64.2299L181.797 65.106ZM178.319 68.4556L177.53 67.9539L177.528 67.9579L178.319 68.4556ZM177.794 70.6874L176.868 70.7784L176.868 70.7875L177.794 70.6874ZM179.351 74.1275L178.76 74.992L178.77 75.0005L179.351 74.1275ZM180.485 74.7261L180.732 73.68L180.485 74.7261ZM181.767 74.6771L182.606 74.166L182.3 73.4303L181.589 73.643L181.767 74.6771ZM183.184 78.0798L183.469 79.0743L184.465 78.6304L184.023 77.5687L183.184 78.0798ZM180.587 78.4689L180.757 77.4078L180.757 77.4077L180.587 78.4689ZM178.119 77.3464L177.557 78.2349L177.562 78.2386L178.119 77.3464ZM176.821 74.1181C176.098 72.8037 175.746 71.5278 175.715 70.2828L173.865 70.4777C173.907 72.1591 174.382 73.7837 175.241 75.3438L176.821 74.1181ZM175.715 70.2904C175.692 69.0404 175.97 67.8499 176.564 66.6959L174.988 65.6896C174.212 67.1964 173.833 68.7975 173.864 70.4702L175.715 70.2904ZM176.563 66.698C177.163 65.5386 178.069 64.4659 179.324 63.4932L178.359 61.7411C176.908 62.8663 175.771 64.1773 174.99 65.6874L176.563 66.698ZM179.324 63.4932C180.553 62.5399 181.737 61.9902 182.882 61.7992L182.73 59.6831C181.249 59.9303 179.79 60.6313 178.359 61.7411L179.324 63.4932ZM182.879 61.7995C184.04 61.6087 185.088 61.7686 186.046 62.2642L186.889 60.3032C185.608 59.6409 184.215 59.4391 182.732 59.6828L182.879 61.7995ZM186.05 62.2661C187 62.7511 187.818 63.5814 188.495 64.8117L190.075 63.5861C189.246 62.0787 188.186 60.9655 186.885 60.3013L186.05 62.2661ZM188.495 64.8117C188.928 65.5989 189.216 66.4194 189.367 67.2758L191.182 66.7253C190.986 65.6133 190.615 64.566 190.075 63.5861L188.495 64.8117ZM189.369 67.2856C189.523 68.1207 189.516 68.9651 189.345 69.83L191.149 70.1804C191.38 69.0112 191.391 67.8525 191.181 66.7155L189.369 67.2856ZM189.344 69.8355C189.18 70.6825 188.832 71.5434 188.269 72.422L189.732 73.623C190.436 72.5251 190.918 71.3745 191.15 70.1749L189.344 69.8355ZM188.267 72.424C187.726 73.2729 186.94 74.1161 185.876 74.9411L186.841 76.6933C188.044 75.7599 189.02 74.7399 189.734 73.621L188.267 72.424ZM185.876 74.9411L184.942 75.6658L185.906 77.418L186.841 76.6933L185.876 74.9411ZM186.214 75.9291L179.747 64.1786L178.167 65.4042L184.634 77.1547L186.214 75.9291ZM179.439 65.6675L181.493 64.0744L180.529 62.3223L178.475 63.9153L179.439 65.6675ZM180.221 63.8112L184.906 72.3231L186.486 71.0974L181.801 62.5855L180.221 63.8112ZM186.186 72.5804C186.878 72.0331 187.434 71.3616 187.823 70.5597L186.221 69.6051C186.002 70.0559 185.675 70.4696 185.206 70.8401L186.186 72.5804ZM187.821 70.5646C188.214 69.7628 188.41 68.9058 188.402 68.0135L186.551 68.1709C186.555 68.6709 186.449 69.1406 186.224 69.6002L187.821 70.5646ZM188.402 68.0194C188.397 67.1092 188.158 66.2572 187.727 65.4739L186.147 66.6995C186.428 67.2104 186.548 67.6954 186.55 68.165L188.402 68.0194ZM187.727 65.4739C187.265 64.6346 186.653 64.0039 185.885 63.63L185.077 65.6085C185.49 65.8099 185.848 66.1575 186.147 66.6995L187.727 65.4739ZM185.892 63.6335C185.165 63.2707 184.389 63.1412 183.581 63.2486L183.678 65.3728C184.167 65.3077 184.626 65.3839 185.07 65.6051L185.892 63.6335ZM183.577 63.2491C182.779 63.3589 182.024 63.6901 181.322 64.224L182.271 65.988C182.732 65.6377 183.199 65.4387 183.682 65.3722L183.577 63.2491ZM181.315 64.2299L179.521 65.6205L180.486 67.3727L182.279 65.982L181.315 64.2299ZM179.521 65.6205C178.674 66.2775 177.994 67.05 177.53 67.9539L179.108 68.9573C179.386 68.4157 179.829 67.8822 180.486 67.3727L179.521 65.6205ZM177.528 67.9579C177.076 68.8474 176.849 69.7947 176.868 70.7784L178.719 70.5965C178.708 70.0411 178.831 69.5005 179.11 68.9533L177.528 67.9579ZM176.868 70.7875C176.895 71.7656 177.167 72.6888 177.641 73.5494L179.221 72.3237C178.887 71.7158 178.734 71.1396 178.719 70.5874L176.868 70.7875ZM177.641 73.5494C177.956 74.1219 178.327 74.6093 178.76 74.9919L179.941 73.2632C179.689 73.0409 179.447 72.7342 179.221 72.3237L177.641 73.5494ZM178.77 75.0005C179.211 75.3779 179.701 75.6395 180.238 75.7722L180.732 73.68C180.453 73.6108 180.187 73.4733 179.931 73.2545L178.77 75.0005ZM180.238 75.7722C180.795 75.91 181.369 75.8837 181.946 75.7112L181.589 73.643C181.272 73.7376 180.991 73.744 180.732 73.68L180.238 75.7722ZM180.928 75.1882L182.344 78.5909L184.023 77.5687L182.606 74.166L180.928 75.1882ZM182.898 77.0853C182.18 77.4056 181.471 77.5102 180.757 77.4078L180.417 79.5301C181.442 79.6771 182.464 79.5223 183.469 79.0743L182.898 77.0853ZM180.757 77.4077C180.053 77.3073 179.361 76.9999 178.677 76.4542L177.562 78.2386C178.447 78.9438 179.4 79.3848 180.417 79.5301L180.757 77.4077ZM178.681 76.4579C178.01 75.9149 177.386 75.1446 176.821 74.1181L175.241 75.3438C175.902 76.5449 176.671 77.5182 177.557 78.2349L178.681 76.4579Z" fill="#A80A0A"/>
<path d="M205.644 141.624L202.676 141.332L203.349 131.682L206.318 131.974L205.644 141.624ZM189.865 132.785L207.687 134.538C208.783 134.646 209.678 134.962 210.375 135.487C211.071 136.019 211.572 136.689 211.879 137.497C212.185 138.305 212.305 139.18 212.24 140.122C212.193 140.788 212.099 141.374 211.957 141.881C211.815 142.388 211.693 142.761 211.59 143.001L208.675 141.944C208.736 141.786 208.8 141.585 208.867 141.342C208.94 141.099 208.988 140.826 209.009 140.521C209.059 139.806 208.921 139.282 208.596 138.95C208.277 138.627 207.799 138.433 207.163 138.371L189.595 136.643L189.865 132.785Z" fill="#EC1919"/>
<path d="M205.644 141.624L205.575 142.622L206.57 142.72L206.64 141.722L205.644 141.624ZM202.676 141.332L201.681 141.234L201.611 142.232L202.606 142.33L202.676 141.332ZM203.349 131.682L203.419 130.685L202.424 130.587L202.354 131.584L203.349 131.682ZM206.318 131.974L207.313 132.072L207.383 131.075L206.388 130.977L206.318 131.974ZM189.865 132.785L189.934 131.787L188.939 131.689L188.869 132.687L189.865 132.785ZM210.375 135.487L210.965 134.696L210.959 134.692L210.375 135.487ZM211.879 137.497L212.809 137.163L212.809 137.163L211.879 137.497ZM211.957 141.881L210.996 141.585L210.996 141.585L211.957 141.881ZM211.59 143.001L211.275 143.943L212.15 144.26L212.509 143.417L211.59 143.001ZM208.675 141.944L207.743 141.56L207.371 142.527L208.36 142.885L208.675 141.944ZM208.867 141.342L207.912 141.024L207.908 141.037L207.904 141.05L208.867 141.342ZM208.596 138.95L209.296 138.257L209.295 138.255L208.596 138.95ZM189.595 136.643L188.6 136.545L188.53 137.542L189.526 137.64L189.595 136.643ZM205.714 140.627L202.745 140.335L202.606 142.33L205.575 142.622L205.714 140.627ZM203.671 141.43L204.345 131.78L202.354 131.584L201.681 141.234L203.671 141.43ZM203.28 132.68L206.248 132.972L206.388 130.977L203.419 130.685L203.28 132.68ZM205.323 131.876L204.649 141.526L206.64 141.722L207.313 132.072L205.323 131.876ZM189.795 133.782L207.617 135.536L207.757 133.54L189.934 131.787L189.795 133.782ZM207.617 135.536C208.578 135.63 209.282 135.899 209.79 136.283L210.959 134.692C210.075 134.025 208.987 133.661 207.757 133.54L207.617 135.536ZM209.785 136.279C210.329 136.694 210.711 137.207 210.948 137.831L212.809 137.163C212.433 136.172 211.813 135.344 210.965 134.696L209.785 136.279ZM210.948 137.831C211.196 138.486 211.301 139.212 211.244 140.024L213.235 140.22C213.31 139.147 213.174 138.123 212.809 137.163L210.948 137.831ZM211.244 140.024C211.202 140.639 211.116 141.157 210.996 141.585L212.918 142.178C213.082 141.592 213.185 140.937 213.235 140.22L211.244 140.024ZM210.996 141.585C210.856 142.083 210.748 142.406 210.672 142.585L212.509 143.417C212.637 143.117 212.773 142.693 212.918 142.178L210.996 141.585ZM211.906 142.059L208.99 141.002L208.36 142.885L211.275 143.943L211.906 142.059ZM209.607 142.328C209.684 142.129 209.757 141.894 209.829 141.633L207.904 141.05C207.843 141.275 207.788 141.442 207.743 141.56L209.607 142.328ZM209.821 141.66C209.921 141.333 209.979 140.984 210.005 140.619L208.014 140.423C207.997 140.667 207.96 140.865 207.912 141.024L209.821 141.66ZM210.005 140.619C210.063 139.776 209.923 138.895 209.296 138.257L207.895 139.644C207.92 139.669 208.055 139.835 208.014 140.423L210.005 140.619ZM209.295 138.255C208.747 137.699 208.007 137.449 207.233 137.373L207.094 139.368C207.592 139.417 207.807 139.554 207.897 139.645L209.295 138.255ZM207.233 137.373L189.665 135.645L189.526 137.64L207.094 139.368L207.233 137.373ZM190.59 136.741L190.86 132.883L188.869 132.687L188.6 136.545L190.59 136.741Z" fill="#A80A0A"/>
<path d="M184.205 162.776L198.719 170.334L197.423 173.841L195.004 172.582L194.945 172.742C195.679 173.458 196.147 174.274 196.35 175.189C196.556 176.115 196.497 177.017 196.172 177.897C196.098 178.097 196.006 178.315 195.896 178.552C195.79 178.798 195.69 178.997 195.597 179.147L192.451 177.508C192.558 177.381 192.692 177.161 192.853 176.848C193.017 176.544 193.156 176.239 193.27 175.933C193.513 175.273 193.597 174.61 193.521 173.943C193.448 173.285 193.231 172.684 192.869 172.138C192.507 171.592 192.018 171.158 191.401 170.837L182.868 166.394L184.205 162.776Z" fill="#EC1919"/>
<path d="M184.205 162.776L184.551 161.838L183.664 161.377L183.318 162.315L184.205 162.776ZM198.719 170.334L199.606 170.796L199.952 169.858L199.065 169.396L198.719 170.334ZM197.423 173.841L197.076 174.779L197.963 175.241L198.31 174.303L197.423 173.841ZM195.004 172.582L195.35 171.644L194.463 171.182L194.117 172.12L195.004 172.582ZM194.945 172.742L194.058 172.28L193.804 172.967L194.347 173.497L194.945 172.742ZM196.35 175.189L195.425 175.353L195.426 175.355L196.35 175.189ZM195.896 178.552L195.04 178.015L195.034 178.028L195.029 178.041L195.896 178.552ZM195.597 179.147L195.251 180.085L195.978 180.463L196.399 179.784L195.597 179.147ZM192.451 177.508L191.727 176.764L190.857 177.797L192.104 178.446L192.451 177.508ZM192.853 176.848L192.024 176.258L192.018 176.268L192.013 176.277L192.853 176.848ZM193.521 173.943L192.575 173.981L192.576 173.985L193.521 173.943ZM182.868 166.394L181.981 165.932L181.634 166.87L182.521 167.332L182.868 166.394ZM183.858 163.715L198.372 171.272L199.065 169.396L184.551 161.838L183.858 163.715ZM197.832 169.872L196.536 173.38L198.31 174.303L199.606 170.796L197.832 169.872ZM197.769 172.903L195.35 171.644L194.657 173.52L197.076 174.779L197.769 172.903ZM194.117 172.12L194.058 172.28L195.831 173.204L195.891 173.044L194.117 172.12ZM194.347 173.497C194.939 174.075 195.279 174.689 195.425 175.353L197.274 175.026C197.016 173.858 196.419 172.841 195.542 171.986L194.347 173.497ZM195.426 175.355C195.582 176.057 195.542 176.741 195.285 177.435L197.059 178.359C197.452 177.294 197.53 176.173 197.274 175.024L195.426 175.355ZM195.285 177.435C195.222 177.604 195.141 177.798 195.04 178.015L196.752 179.088C196.871 178.832 196.974 178.589 197.059 178.359L195.285 177.435ZM195.029 178.041C194.933 178.263 194.855 178.414 194.796 178.51L196.399 179.784C196.526 179.579 196.647 179.334 196.764 179.062L195.029 178.041ZM195.944 178.209L192.797 176.57L192.104 178.446L195.251 180.085L195.944 178.209ZM193.175 178.253C193.352 178.042 193.525 177.743 193.692 177.418L192.013 176.277C191.858 176.58 191.764 176.72 191.727 176.764L193.175 178.253ZM193.682 177.438C193.867 177.096 194.026 176.749 194.157 176.395L192.383 175.471C192.287 175.73 192.168 175.992 192.024 176.258L193.682 177.438ZM194.157 176.395C194.452 175.595 194.564 174.759 194.465 173.9L192.576 173.985C192.63 174.461 192.574 174.952 192.383 175.471L194.157 176.395ZM194.466 173.904C194.373 173.062 194.091 172.277 193.623 171.571L192.116 172.704C192.371 173.09 192.523 173.509 192.575 173.981L194.466 173.904ZM193.623 171.571C193.143 170.847 192.505 170.294 191.747 169.899L191.054 171.775C191.53 172.023 191.872 172.336 192.116 172.704L193.623 171.571ZM191.747 169.899L183.215 165.456L182.521 167.332L191.054 171.775L191.747 169.899ZM183.755 166.856L185.092 163.238L183.318 162.315L181.981 165.932L183.755 166.856Z" fill="#A80A0A"/>
<path d="M167.161 193.089C168.14 191.827 169.226 190.992 170.419 190.584C171.612 190.177 172.833 190.184 174.082 190.606C175.328 191.034 176.521 191.871 177.662 193.118C178.803 194.365 179.607 195.71 180.073 197.153C180.536 198.602 180.645 200.048 180.401 201.493C180.158 202.938 179.547 204.292 178.567 205.554C177.588 206.817 176.502 207.652 175.309 208.06C174.116 208.467 172.895 208.454 171.645 208.021C170.391 207.594 169.193 206.757 168.052 205.51C166.911 204.263 166.111 202.918 165.654 201.475C165.192 200.037 165.083 198.596 165.327 197.151C165.57 195.706 166.181 194.352 167.161 193.089ZM169.233 195.386C168.702 196.07 168.419 196.818 168.383 197.629C168.353 198.446 168.523 199.265 168.896 200.087C169.264 200.914 169.784 201.695 170.455 202.428C171.131 203.167 171.832 203.72 172.557 204.087C173.282 204.465 173.986 204.602 174.669 204.499C175.352 204.395 175.959 204 176.49 203.316C177.034 202.614 177.324 201.852 177.359 201.03C177.39 200.214 177.219 199.389 176.846 198.556C176.473 197.735 175.949 196.954 175.273 196.215C174.602 195.482 173.906 194.929 173.185 194.556C172.46 194.189 171.756 194.057 171.073 194.161C170.391 194.276 169.777 194.684 169.233 195.386Z" fill="#EC1919"/>
<path d="M170.419 190.584L170.155 189.545L170.155 189.545L170.419 190.584ZM174.082 190.606L174.325 189.568L174.321 189.567L174.082 190.606ZM180.073 197.153L180.926 196.783L180.924 196.778L180.073 197.153ZM180.401 201.493L179.507 201.267L179.507 201.267L180.401 201.493ZM175.309 208.06L175.046 207.02L175.046 207.02L175.309 208.06ZM171.645 208.021L171.889 206.984L171.885 206.983L171.645 208.021ZM165.654 201.475L166.507 201.107L166.505 201.102L165.654 201.475ZM165.327 197.151L166.221 197.377L166.221 197.377L165.327 197.151ZM168.383 197.629L167.473 197.558L167.473 197.566L168.383 197.629ZM168.896 200.087L169.701 199.593L169.698 199.586L168.896 200.087ZM172.557 204.087L172.914 203.099L172.905 203.094L172.557 204.087ZM174.669 204.499L174.798 205.571L174.798 205.571L174.669 204.499ZM177.359 201.03L178.27 201.1L178.27 201.094L177.359 201.03ZM176.846 198.556L177.65 198.06L177.648 198.055L176.846 198.556ZM173.185 194.556L173.54 193.566L173.533 193.563L173.185 194.556ZM171.073 194.161L170.945 193.089L170.933 193.091L171.073 194.161ZM167.836 193.827C168.723 192.683 169.673 191.968 170.682 191.623L170.155 189.545C168.779 190.015 167.557 190.97 166.486 192.352L167.836 193.827ZM170.682 191.623C171.705 191.274 172.752 191.277 173.844 191.646L174.321 189.567C172.913 189.092 171.518 189.08 170.155 189.545L170.682 191.623ZM173.84 191.644C174.923 192.016 175.993 192.755 177.049 193.908L178.275 192.328C177.048 190.987 175.732 190.051 174.325 189.568L173.84 191.644ZM177.049 193.908C178.105 195.062 178.816 196.27 179.223 197.528L180.924 196.778C180.398 195.15 179.501 193.668 178.275 192.328L177.049 193.908ZM179.221 197.523C179.625 198.79 179.716 200.03 179.507 201.267L181.296 201.719C181.574 200.067 181.446 198.414 180.926 196.783L179.221 197.523ZM179.507 201.267C179.301 202.49 178.78 203.673 177.892 204.817L179.242 206.292C180.314 204.911 181.015 203.386 181.296 201.719L179.507 201.267ZM177.892 204.817C177.005 205.961 176.055 206.676 175.046 207.02L175.573 209.099C176.949 208.629 178.171 207.674 179.242 206.292L177.892 204.817ZM175.046 207.02C174.025 207.369 172.98 207.362 171.889 206.984L171.401 209.059C172.81 209.547 174.208 209.565 175.573 209.099L175.046 207.02ZM171.885 206.983C170.793 206.611 169.719 205.872 168.665 204.72L167.439 206.3C168.667 207.642 169.988 208.578 171.405 209.06L171.885 206.983ZM168.665 204.72C167.61 203.568 166.904 202.361 166.507 201.107L164.801 201.842C165.318 203.475 166.211 204.959 167.439 206.3L168.665 204.72ZM166.505 201.102C166.103 199.849 166.012 198.615 166.221 197.377L164.432 196.925C164.154 198.577 164.282 200.225 164.802 201.847L166.505 201.102ZM166.221 197.377C166.427 196.154 166.949 194.971 167.836 193.827L166.486 192.352C165.414 193.733 164.713 195.258 164.432 196.925L166.221 197.377ZM168.558 194.648C167.909 195.486 167.521 196.461 167.473 197.558L169.294 197.701C169.317 197.175 169.496 196.655 169.908 196.123L168.558 194.648ZM167.473 197.566C167.433 198.604 167.654 199.617 168.094 200.588L169.698 199.586C169.393 198.914 169.272 198.288 169.294 197.693L167.473 197.566ZM168.091 200.581C168.515 201.535 169.105 202.413 169.842 203.219L171.068 201.638C170.462 200.977 170.013 200.294 169.701 199.593L168.091 200.581ZM169.842 203.219C170.584 204.029 171.372 204.657 172.208 205.081L172.905 203.094C172.291 202.783 171.678 202.305 171.068 201.638L169.842 203.219ZM172.2 205.076C173.056 205.522 173.928 205.703 174.798 205.571L174.541 203.426C174.045 203.502 173.508 203.409 172.914 203.099L172.2 205.076ZM174.798 205.571C175.721 205.43 176.513 204.894 177.165 204.053L175.815 202.578C175.405 203.107 174.983 203.359 174.541 203.426L174.798 205.571ZM177.165 204.053C177.826 203.201 178.222 202.211 178.27 201.1L176.448 200.96C176.426 201.493 176.242 202.027 175.815 202.578L177.165 204.053ZM178.27 201.094C178.309 200.056 178.089 199.039 177.65 198.06L176.042 199.053C176.349 199.739 176.471 200.371 176.448 200.967L178.27 201.094ZM177.648 198.055C177.219 197.109 176.626 196.234 175.886 195.425L174.66 197.006C175.273 197.675 175.728 198.36 176.044 199.058L177.648 198.055ZM175.886 195.425C175.15 194.621 174.369 193.995 173.54 193.566L172.83 195.546C173.443 195.863 174.053 196.342 174.66 197.006L175.886 195.425ZM173.533 193.563C172.679 193.13 171.81 192.957 170.945 193.089L171.202 195.233C171.702 195.157 172.241 195.248 172.837 195.549L173.533 193.563ZM170.933 193.091C170.01 193.246 169.217 193.798 168.558 194.648L169.908 196.123C170.338 195.57 170.771 195.306 171.214 195.231L170.933 193.091Z" fill="#A80A0A"/>
<path d="M152.628 219.241L148.651 210.517L151.895 208.433L158.683 223.322L155.582 225.314L154.429 222.784L154.267 222.888C154.331 223.925 154.128 224.912 153.658 225.848C153.183 226.788 152.432 227.589 151.404 228.249C150.454 228.859 149.526 229.171 148.62 229.185C147.709 229.202 146.869 228.919 146.101 228.335C145.326 227.754 144.671 226.868 144.135 225.675L139.813 216.194L143.058 214.11L147.132 223.047C147.586 224.043 148.18 224.668 148.914 224.923C149.643 225.182 150.425 225.043 151.262 224.505C151.829 224.141 152.272 223.681 152.591 223.125C152.906 222.58 153.074 221.975 153.096 221.309C153.111 220.648 152.955 219.959 152.628 219.241Z" fill="#EC1919"/>
<path d="M148.651 210.517L148.236 209.607L147.394 210.148L147.809 211.057L148.651 210.517ZM151.895 208.433L152.737 207.892L152.322 206.982L151.48 207.523L151.895 208.433ZM158.683 223.322L159.098 224.232L159.939 223.691L159.525 222.781L158.683 223.322ZM155.582 225.314L154.741 225.855L155.155 226.765L155.997 226.224L155.582 225.314ZM154.429 222.784L155.27 222.244L154.855 221.334L154.014 221.874L154.429 222.784ZM154.267 222.888L153.852 221.978L153.288 222.34L153.331 223.042L154.267 222.888ZM153.658 225.848L154.465 226.317L154.466 226.313L153.658 225.848ZM148.62 229.185L148.681 228.126L148.678 228.127L148.62 229.185ZM146.101 228.335L146.665 227.442L146.661 227.439L146.101 228.335ZM144.135 225.675L144.978 225.139L144.976 225.134L144.135 225.675ZM139.813 216.194L139.398 215.285L138.557 215.825L138.971 216.735L139.813 216.194ZM143.058 214.11L143.899 213.57L143.484 212.66L142.643 213.2L143.058 214.11ZM148.914 224.923L149.258 223.911L149.253 223.909L148.914 224.923ZM152.591 223.125L151.817 222.596L151.815 222.601L152.591 223.125ZM153.096 221.309L154.033 221.265L154.033 221.254L153.096 221.309ZM153.469 218.701L149.492 209.976L147.809 211.057L151.787 219.782L153.469 218.701ZM149.065 211.427L152.31 209.342L151.48 207.523L148.236 209.607L149.065 211.427ZM151.054 208.973L157.842 223.862L159.525 222.781L152.737 207.892L151.054 208.973ZM158.268 222.412L155.167 224.404L155.997 226.224L159.098 224.232L158.268 222.412ZM156.423 224.774L155.27 222.244L153.587 223.325L154.741 225.855L156.423 224.774ZM154.014 221.874L153.852 221.978L154.682 223.798L154.843 223.694L154.014 221.874ZM153.331 223.042C153.382 223.869 153.223 224.64 152.85 225.383L154.466 226.313C155.032 225.184 155.279 223.981 155.203 222.734L153.331 223.042ZM152.852 225.379C152.489 226.098 151.892 226.759 150.989 227.339L151.819 229.159C152.971 228.418 153.877 227.479 154.465 226.317L152.852 225.379ZM150.989 227.339C150.161 227.871 149.397 228.116 148.681 228.126L148.56 230.243C149.655 230.227 150.746 229.848 151.819 229.159L150.989 227.339ZM148.678 228.127C147.96 228.14 147.295 227.921 146.665 227.442L145.536 229.227C146.443 229.916 147.458 230.264 148.563 230.243L148.678 228.127ZM146.661 227.439C146.035 226.97 145.466 226.224 144.978 225.139L143.291 226.21C143.876 227.511 144.617 228.538 145.541 229.23L146.661 227.439ZM144.976 225.134L140.654 215.654L138.971 216.735L143.293 226.215L144.976 225.134ZM140.228 217.104L143.472 215.02L142.643 213.2L139.398 215.285L140.228 217.104ZM142.216 214.65L146.291 223.588L147.973 222.507L143.899 213.57L142.216 214.65ZM146.291 223.588C146.816 224.74 147.562 225.585 148.576 225.937L149.253 223.909C148.798 223.751 148.355 223.345 147.973 222.507L146.291 223.588ZM148.57 225.935C149.592 226.298 150.652 226.073 151.676 225.415L150.847 223.595C150.198 224.012 149.693 224.066 149.258 223.911L148.57 225.935ZM151.676 225.415C152.372 224.968 152.947 224.382 153.367 223.65L151.815 222.601C151.598 222.979 151.286 223.313 150.847 223.595L151.676 225.415ZM153.364 223.654C153.786 222.924 154.006 222.118 154.033 221.265L152.158 221.354C152.143 221.831 152.026 222.235 151.817 222.596L153.364 223.654ZM154.033 221.254C154.053 220.383 153.846 219.528 153.469 218.701L151.787 219.782C152.063 220.389 152.168 220.913 152.158 221.364L154.033 221.254Z" fill="#A80A0A"/>
<path d="M118.897 239.332L118.482 236.378L127.71 234.551L128.125 237.504L118.897 239.332ZM126.392 241.838L122.609 242.587L120.471 227.375C120.399 226.861 120.267 226.483 120.075 226.239C119.877 226.003 119.642 225.862 119.371 225.814C119.099 225.767 118.807 225.774 118.493 225.836C118.256 225.883 118.043 225.944 117.853 226.017C117.655 226.093 117.507 226.155 117.406 226.203L116.349 223.344C116.541 223.234 116.819 223.099 117.184 222.94C117.541 222.783 117.987 222.644 118.521 222.523C119.465 222.308 120.339 222.283 121.143 222.449C121.948 222.622 122.62 223.002 123.161 223.589C123.695 224.177 124.03 224.978 124.165 225.992L126.392 241.838Z" fill="#EC1919"/>
<path d="M118.897 239.332L117.916 239.527L118.055 240.517L119.036 240.323L118.897 239.332ZM118.482 236.378L118.343 235.388L117.362 235.582L117.501 236.573L118.482 236.378ZM127.71 234.551L128.691 234.356L128.551 233.366L127.57 233.56L127.71 234.551ZM128.125 237.504L128.264 238.495L129.245 238.3L129.106 237.31L128.125 237.504ZM126.392 241.838L126.532 242.828L127.513 242.634L127.373 241.644L126.392 241.838ZM122.609 242.587L121.628 242.782L121.768 243.772L122.749 243.578L122.609 242.587ZM120.075 226.239L120.861 225.583L120.852 225.571L120.842 225.56L120.075 226.239ZM119.371 225.814L119.588 224.819L119.588 224.819L119.371 225.814ZM117.853 226.017L118.156 226.96L118.162 226.958L117.853 226.017ZM117.406 226.203L116.477 226.602L116.836 227.575L117.793 227.11L117.406 226.203ZM116.349 223.344L115.898 222.471L115.115 222.921L115.419 223.743L116.349 223.344ZM117.184 222.94L117.532 223.865L117.536 223.863L117.184 222.94ZM118.521 222.523L118.686 223.508L118.689 223.508L118.521 222.523ZM121.143 222.449L121.396 221.461L121.388 221.459L121.143 222.449ZM123.161 223.589L123.905 222.883L123.9 222.878L123.161 223.589ZM124.165 225.992L123.183 226.18L123.184 226.187L124.165 225.992ZM119.878 239.138L119.463 236.184L117.501 236.573L117.916 239.527L119.878 239.138ZM118.621 237.369L127.849 235.541L127.57 233.56L118.343 235.388L118.621 237.369ZM126.729 234.745L127.144 237.699L129.106 237.31L128.691 234.356L126.729 234.745ZM127.986 236.514L118.758 238.342L119.036 240.323L128.264 238.495L127.986 236.514ZM126.253 240.848L122.47 241.597L122.749 243.578L126.532 242.828L126.253 240.848ZM123.59 242.393L121.452 227.18L119.49 227.569L121.628 242.782L123.59 242.393ZM121.452 227.18C121.369 226.593 121.203 226.017 120.861 225.583L119.289 226.894C119.331 226.948 119.428 227.13 119.49 227.569L121.452 227.18ZM120.842 225.56C120.522 225.179 120.102 224.909 119.588 224.819L119.154 226.809C119.183 226.814 119.232 226.828 119.308 226.918L120.842 225.56ZM119.588 224.819C119.184 224.749 118.77 224.764 118.354 224.846L118.632 226.827C118.843 226.785 119.014 226.785 119.154 226.809L119.588 224.819ZM118.354 224.846C118.07 224.902 117.798 224.978 117.543 225.077L118.162 226.958C118.287 226.91 118.442 226.864 118.632 226.827L118.354 224.846ZM117.549 225.075C117.344 225.153 117.161 225.228 117.019 225.297L117.793 227.11C117.852 227.082 117.967 227.032 118.156 226.96L117.549 225.075ZM118.336 225.805L117.279 222.946L115.419 223.743L116.477 226.602L118.336 225.805ZM116.8 224.217C116.943 224.135 117.18 224.018 117.532 223.865L116.835 222.016C116.459 222.18 116.139 222.332 115.898 222.471L116.8 224.217ZM117.536 223.863C117.813 223.741 118.192 223.62 118.686 223.508L118.357 221.539C117.782 221.668 117.269 221.825 116.831 222.017L117.536 223.863ZM118.689 223.508C119.517 223.318 120.248 223.304 120.897 223.438L121.388 221.459C120.43 221.261 119.414 221.297 118.354 221.539L118.689 223.508ZM120.889 223.437C121.512 223.571 122.014 223.857 122.422 224.3L123.9 222.878C123.227 222.147 122.383 221.673 121.396 221.461L120.889 223.437ZM122.417 224.295C122.793 224.708 123.067 225.312 123.183 226.18L125.147 225.805C124.992 224.645 124.597 223.646 123.905 222.883L122.417 224.295ZM123.184 226.187L125.412 242.032L127.373 241.644L125.146 225.798L123.184 226.187Z" fill="#A80A0A"/>
</svg>
